<svg width="20" height="20" viewBox="0 0 20 20" fill="none" xmlns="http://www.w3.org/2000/svg">
<g clip-path="url(#clip0_106_185)">
<mask id="path-1-outside-1_106_185" maskUnits="userSpaceOnUse" x="-1" y="-1.00122" width="22" height="22" fill="black">
<rect fill="white" x="-1" y="-1.00122" width="22" height="22"/>
<path d="M19.1381 20.0012L11.4936 12.3567C10.8832 12.8768 10.1813 13.2792 9.38778 13.5641C8.59427 13.8489 7.7967 13.9913 6.99506 13.9913C5.04018 13.9913 3.38562 13.3146 2.03137 11.9612C0.677125 10.6077 0 8.95359 0 6.99872C0 5.04385 0.67631 3.38888 2.02893 2.03382C3.38155 0.678755 5.0353 0.000409928 6.99017 -0.00121778C8.94505 -0.00284548 10.6004 0.674279 11.9563 2.03016C13.3122 3.38603 13.9901 5.041 13.9901 6.99506C13.9901 7.84309 13.84 8.66386 13.5396 9.45737C13.2393 10.2509 12.8446 10.9296 12.3555 11.4936L20 19.1369L19.1381 20.0012ZM6.99628 12.7693C8.61584 12.7693 9.98311 12.2118 11.0981 11.0969C12.2131 9.9819 12.7706 8.61422 12.7706 6.99384C12.7706 5.37346 12.2131 4.00619 11.0981 2.89203C9.98311 1.77786 8.61584 1.22037 6.99628 1.21956C5.37671 1.21875 4.00903 1.77623 2.89324 2.89203C1.77745 4.00782 1.21996 5.37509 1.22078 6.99384C1.22159 8.61259 1.77908 9.97986 2.89324 11.0957C4.00741 12.2114 5.37468 12.7689 6.99506 12.7681M4.22633 7.60545V6.38467H9.76744V7.60545H4.22633Z"/>
</mask>
<path d="M19.1381 20.0012L11.4936 12.3567C10.8832 12.8768 10.1813 13.2792 9.38778 13.5641C8.59427 13.8489 7.7967 13.9913 6.99506 13.9913C5.04018 13.9913 3.38562 13.3146 2.03137 11.9612C0.677125 10.6077 0 8.95359 0 6.99872C0 5.04385 0.67631 3.38888 2.02893 2.03382C3.38155 0.678755 5.0353 0.000409928 6.99017 -0.00121778C8.94505 -0.00284548 10.6004 0.674279 11.9563 2.03016C13.3122 3.38603 13.9901 5.041 13.9901 6.99506C13.9901 7.84309 13.84 8.66386 13.5396 9.45737C13.2393 10.2509 12.8446 10.9296 12.3555 11.4936L20 19.1369L19.1381 20.0012ZM6.99628 12.7693C8.61584 12.7693 9.98311 12.2118 11.0981 11.0969C12.2131 9.9819 12.7706 8.61422 12.7706 6.99384C12.7706 5.37346 12.2131 4.00619 11.0981 2.89203C9.98311 1.77786 8.61584 1.22037 6.99628 1.21956C5.37671 1.21875 4.00903 1.77623 2.89324 2.89203C1.77745 4.00782 1.21996 5.37509 1.22078 6.99384C1.22159 8.61259 1.77908 9.97986 2.89324 11.0957C4.00741 12.2114 5.37468 12.7689 6.99506 12.7681M4.22633 7.60545V6.38467H9.76744V7.60545H4.22633Z" fill="black"/>
<path d="M19.1381 20.0012L19.1028 20.0366L19.1382 20.072L19.1735 20.0365L19.1381 20.0012ZM11.4936 12.3567L11.529 12.3214L11.4963 12.2887L11.4612 12.3187L11.4936 12.3567ZM6.99506 13.9913V13.9413V13.9913ZM12.3555 11.4936L12.3177 11.4609L12.2872 11.4961L12.3201 11.529L12.3555 11.4936ZM20 19.1369L20.0354 19.1722L20.0707 19.1369L20.0354 19.1016L20 19.1369ZM4.22633 7.60545H4.17633V7.65545H4.22633V7.60545ZM4.22633 6.38467V6.33467H4.17633V6.38467H4.22633ZM9.76744 6.38467H9.81744V6.33467H9.76744V6.38467ZM9.76744 7.60545V7.65545H9.81744V7.60545H9.76744ZM19.1381 20.0012L19.1735 19.9659L11.529 12.3214L11.4936 12.3567L11.4583 12.3921L19.1028 20.0366L19.1381 20.0012ZM11.4936 12.3567L11.4612 12.3187C10.8556 12.8346 10.159 13.2341 9.37089 13.517L9.38778 13.5641L9.40467 13.6111C10.2036 13.3243 10.9108 12.9189 11.526 12.3948L11.4936 12.3567ZM9.38778 13.5641L9.37089 13.517C8.58252 13.8 7.79065 13.9413 6.99506 13.9413V13.9913V14.0413C7.80275 14.0413 8.60603 13.8978 9.40467 13.6111L9.38778 13.5641ZM6.99506 13.9913V13.9413C5.05313 13.9413 3.41137 13.2697 2.06672 11.9258L2.03137 11.9612L1.99603 11.9965C3.35987 13.3596 5.02724 14.0413 6.99506 14.0413V13.9913ZM2.03137 11.9612L2.06672 11.9258C0.722072 10.582 0.05 8.94064 0.05 6.99872H0H-0.05C-0.05 8.96655 0.632178 10.6335 1.99603 11.9965L2.03137 11.9612ZM0 6.99872H0.05C0.05 5.05678 0.721273 3.41461 2.06432 2.06914L2.02893 2.03382L1.99354 1.9985C0.631348 3.36315 -0.05 5.03092 -0.05 6.99872H0ZM2.02893 2.03382L2.06432 2.06914C3.40735 0.723684 5.04829 0.0503991 6.99021 0.0487822L6.99017 -0.00121778L6.99013 -0.0512178C5.02231 -0.0495793 3.35575 0.633827 1.99354 1.9985L2.02893 2.03382ZM6.99017 -0.00121778L6.99021 0.0487822C8.9321 0.0471653 10.5747 0.719225 11.9209 2.06551L11.9563 2.03016L11.9917 1.9948C10.6262 0.629334 8.95799 -0.0528563 6.99013 -0.0512178L6.99017 -0.00121778ZM11.9563 2.03016L11.9209 2.06551C13.2672 3.41181 13.9401 5.05398 13.9401 6.99506H13.9901H14.0401C14.0401 5.02802 13.3571 3.36025 11.9917 1.9948L11.9563 2.03016ZM13.9901 6.99506H13.9401C13.9401 7.83704 13.7911 8.65182 13.4929 9.43967L13.5396 9.45737L13.5864 9.47507C13.8889 8.67591 14.0401 7.84914 14.0401 6.99506H13.9901ZM13.5396 9.45737L13.4929 9.43967C13.1944 10.2284 12.8025 10.9019 12.3177 11.4609L12.3555 11.4936L12.3933 11.5264C12.8867 10.9574 13.2843 10.2733 13.5864 9.47507L13.5396 9.45737ZM12.3555 11.4936L12.3201 11.529L19.9646 19.1723L20 19.1369L20.0354 19.1016L12.3908 11.4583L12.3555 11.4936ZM20 19.1369L19.9646 19.1016L19.1027 19.9659L19.1381 20.0012L19.1735 20.0365L20.0354 19.1722L20 19.1369ZM6.99628 12.7693V12.8193C8.6287 12.8193 10.0088 12.2569 11.1334 11.1322L11.0981 11.0969L11.0627 11.0615C9.95741 12.1668 8.60298 12.7193 6.99628 12.7193V12.7693ZM11.0981 11.0969L11.1334 11.1322C12.2581 10.0076 12.8206 8.62707 12.8206 6.99384H12.7706H12.7206C12.7206 8.60137 12.168 9.9562 11.0627 11.0615L11.0981 11.0969ZM12.7706 6.99384H12.8206C12.8206 5.36061 12.2581 3.98049 11.1334 2.85666L11.0981 2.89203L11.0627 2.92739C12.168 4.03189 12.7206 5.38631 12.7206 6.99384H12.7706ZM11.0981 2.89203L11.1334 2.85666C10.0088 1.73285 8.6287 1.17038 6.9963 1.16956L6.99628 1.21956L6.99625 1.26956C8.60298 1.27037 9.95742 1.82288 11.0627 2.92739L11.0981 2.89203ZM6.99628 1.21956L6.9963 1.16956C5.36386 1.16874 3.98333 1.73122 2.85789 2.85667L2.89324 2.89203L2.9286 2.92738C4.03473 1.82125 5.38956 1.26875 6.99625 1.26956L6.99628 1.21956ZM2.89324 2.89203L2.85789 2.85667C1.73245 3.98211 1.16996 5.36223 1.17078 6.99386L1.22078 6.99384L1.27078 6.99381C1.26997 5.38795 1.82246 4.03352 2.9286 2.92738L2.89324 2.89203ZM1.22078 6.99384L1.17078 6.99386C1.1716 8.62546 1.73407 10.0055 2.85786 11.131L2.89324 11.0957L2.92862 11.0603C1.82409 9.95418 1.27159 8.59972 1.27078 6.99381L1.22078 6.99384ZM2.89324 11.0957L2.85786 11.131C3.9817 12.2565 5.36183 12.8189 6.99508 12.8181L6.99506 12.7681L6.99503 12.7181C5.38752 12.7189 4.03312 12.1664 2.92862 11.0603L2.89324 11.0957ZM4.22633 7.60545H4.27633V6.38467H4.22633H4.17633V7.60545H4.22633ZM4.22633 6.38467V6.43467H9.76744V6.38467V6.33467H4.22633V6.38467ZM9.76744 6.38467H9.71744V7.60545H9.76744H9.81744V6.38467H9.76744ZM9.76744 7.60545V7.55545H4.22633V7.60545V7.65545H9.76744V7.60545Z" fill="black" mask="url(#path-1-outside-1_106_185)"/>
</g>
<defs>
<clipPath id="clip0_106_185">
<rect width="20" height="20" fill="white"/>
</clipPath>
</defs>
</svg>
