<svg width="20" height="20" viewBox="0 0 20 20" fill="none" xmlns="http://www.w3.org/2000/svg">
<g clip-path="url(#clip0_14_130)">
<path d="M19.1381 20.0012L11.4936 12.3567C10.8832 12.8768 10.1813 13.2792 9.38778 13.5641C8.59427 13.8489 7.7967 13.9913 6.99506 13.9913C5.04018 13.9913 3.38562 13.3146 2.03137 11.9612C0.677125 10.6077 0 8.95359 0 6.99872C0 5.04385 0.67631 3.38888 2.02893 2.03382C3.38155 0.678755 5.0353 0.000409928 6.99017 -0.00121778C8.94505 -0.00284548 10.6004 0.674279 11.9563 2.03016C13.3122 3.38603 13.9901 5.041 13.9901 6.99506C13.9901 7.84309 13.84 8.66386 13.5396 9.45737C13.2393 10.2509 12.8446 10.9296 12.3555 11.4936L20 19.1369L19.1381 20.0012ZM6.99628 12.7693C8.61584 12.7693 9.98311 12.2119 11.0981 11.0969C12.2131 9.9819 12.7706 8.61422 12.7706 6.99384C12.7706 5.37346 12.2131 4.00619 11.0981 2.89203C9.98311 1.77786 8.61584 1.22037 6.99628 1.21956C5.37671 1.21875 4.00903 1.77623 2.89324 2.89203C1.77745 4.00782 1.21996 5.37509 1.22078 6.99384C1.22159 8.61259 1.77908 9.97986 2.89324 11.0957C4.00741 12.2114 5.37468 12.7689 6.99506 12.7681" fill="black"/>
</g>
<defs>
<clipPath id="clip0_14_130">
<rect width="20" height="20" fill="white"/>
</clipPath>
</defs>
</svg>
