<svg width="20" height="20" viewBox="0 0 20 20" fill="none" xmlns="http://www.w3.org/2000/svg">
<path d="M9.99989 13.5557C10.9429 13.5557 11.8473 13.1811 12.514 12.5143C13.1808 11.8475 13.5554 10.9431 13.5554 10.0001C13.5554 9.05714 13.1808 8.15277 12.514 7.48598C11.8473 6.81918 10.9429 6.44458 9.99989 6.44458C9.0569 6.44458 8.15253 6.81918 7.48573 7.48598C6.81894 8.15277 6.44434 9.05714 6.44434 10.0001C6.44434 10.9431 6.81894 11.8475 7.48573 12.5143C8.15253 13.1811 9.0569 13.5557 9.99989 13.5557Z" stroke="black" stroke-width="1.5" stroke-linecap="round" stroke-linejoin="round"/>
<path d="M2 13.5556V6.44444C2 5.2657 2.46825 4.13524 3.30175 3.30175C4.13524 2.46825 5.2657 2 6.44444 2H13.5556C14.7343 2 15.8648 2.46825 16.6983 3.30175C17.5317 4.13524 18 5.2657 18 6.44444V13.5556C18 14.7343 17.5317 15.8648 16.6983 16.6983C15.8648 17.5317 14.7343 18 13.5556 18H6.44444C5.2657 18 4.13524 17.5317 3.30175 16.6983C2.46825 15.8648 2 14.7343 2 13.5556Z" stroke="black" stroke-width="1.5"/>
<path d="M14.8889 5.11989L14.8978 5.11011" stroke="black" stroke-width="1.5" stroke-linecap="round" stroke-linejoin="round"/>
</svg>
