<svg width="20" height="20" viewBox="0 0 20 20" fill="none" xmlns="http://www.w3.org/2000/svg">
<path d="M18.934 14.1075C18.5991 13.1914 16.57 13.0633 15.6244 10.9653C15.5653 10.8077 15.5752 10.6993 15.7328 10.6008C16.4617 10.1182 16.9739 9.85222 17.2694 9.29076C17.4861 8.88691 17.5156 8.41411 17.3482 7.9807C17.1216 7.37985 16.5503 6.99569 15.851 6.99569C15.6047 6.99569 15.4077 7.04494 15.3092 7.06464C15.319 6.65094 15.3092 6.21754 15.2698 5.78413C15.1417 4.27707 14.6098 3.47921 14.0582 2.8488C13.7332 2.48435 12.4428 1.13489 10 1.13489C7.55718 1.13489 6.26681 2.48435 5.94176 2.8488C5.39016 3.47921 4.85825 4.27707 4.7302 5.78413C4.70065 6.21754 4.6908 6.65094 4.6908 7.06464C4.58245 7.03509 4.3953 6.99569 4.14904 6.99569C3.45954 6.99569 2.87838 7.37 2.65183 7.9807C2.48438 8.40426 2.51393 8.88691 2.73063 9.29076C3.03598 9.86207 3.53834 10.1182 4.26725 10.6008C4.42485 10.7092 4.4347 10.8077 4.3756 10.9653C3.42014 13.0633 1.40087 13.1914 1.06597 14.1075C0.918214 14.5015 1.01672 14.9447 1.38117 15.319C1.94262 15.9002 2.98673 16.0775 3.19359 16.2154C3.36104 16.3533 3.34134 16.767 3.81414 17.1019C4.18844 17.358 4.60215 17.3777 5.0454 17.3875C6.33577 17.4368 6.62142 17.6535 7.11392 17.9588C7.73448 18.343 8.58159 18.8651 10 18.8651C11.4184 18.8651 12.2655 18.343 12.8861 17.9588C13.3786 17.6535 13.6642 17.4368 14.9546 17.3875C15.3979 17.3678 15.8116 17.358 16.1859 17.1019C16.6685 16.767 16.6488 16.3533 16.8064 16.2154C17.0133 16.0775 18.0574 15.9002 18.6188 15.319C18.9833 14.9447 19.0818 14.5015 18.934 14.1075ZM17.9195 14.6295C17.555 15.0137 16.6784 15.122 16.2154 15.4372C15.7426 15.8509 15.8214 16.1661 15.6343 16.2942C15.5062 16.3828 15.2796 16.3927 14.925 16.4124C13.546 16.4616 13.0437 16.7177 12.4428 17.092C11.0343 17.9588 10.2463 17.88 10 17.88C9.75375 17.88 8.96574 17.9588 7.56703 17.0822C6.96617 16.7079 6.47367 16.4616 5.0848 16.4025C4.7302 16.3927 4.50365 16.373 4.3756 16.2843C4.18844 16.1563 4.2574 15.8411 3.79444 15.4274C3.32164 15.1122 2.45483 15.0038 2.09038 14.6197C2.03127 14.5606 1.98202 14.4818 1.97217 14.4719C2.04112 14.3734 2.37603 14.1764 2.62228 14.0385C3.39059 13.5854 4.5726 12.9156 5.29166 11.3297C5.54776 10.6402 5.32121 10.0886 4.81885 9.76357C3.68609 9.04451 3.70579 9.01496 3.59744 8.81796C3.55853 8.74244 3.5358 8.65963 3.53071 8.57483C3.52563 8.49002 3.53829 8.40509 3.56789 8.32546C3.68609 8.01025 4.01114 7.9807 4.13919 7.9807C4.32635 7.9807 4.3165 7.99055 5.68566 8.34516C5.66596 6.96614 5.64626 6.52289 5.70536 5.87278C5.81371 4.58242 6.26681 3.97171 6.67067 3.50876C6.94647 3.21326 8.02013 2.1002 10 2.1199C11.9799 2.1002 13.0535 3.21326 13.3195 3.50876C13.7233 3.97171 14.1764 4.58242 14.2848 5.87278C14.3439 6.52289 14.3242 6.96614 14.3045 8.34516C15.6835 7.99055 15.6638 7.9807 15.851 7.9807C15.9889 7.9807 16.3041 8.01025 16.4223 8.32546C16.4912 8.49291 16.4814 8.67021 16.3927 8.81796C16.2844 9.01496 16.3041 9.03466 15.1811 9.77342C14.6788 10.0985 14.4522 10.6501 14.7083 11.3396C15.4274 12.9254 16.6094 13.5953 17.3777 14.0484C17.624 14.1961 17.9589 14.3833 18.0278 14.4818C18.0278 14.4916 17.9687 14.5704 17.9195 14.6295Z" fill="black"/>
</svg>
