<svg width="20" height="20" viewBox="0 0 20 20" fill="none" xmlns="http://www.w3.org/2000/svg">
<path d="M17.3846 5.99995C16.4057 5.99894 15.4671 5.6096 14.7749 4.91738C14.0827 4.22516 13.6933 3.28659 13.6923 2.30765C13.6923 2.14444 13.6275 1.98791 13.5121 1.8725C13.3967 1.7571 13.2401 1.69226 13.0769 1.69226H10C9.83679 1.69226 9.68026 1.7571 9.56486 1.8725C9.44945 1.98791 9.38462 2.14444 9.38462 2.30765V12.4615C9.38449 12.7368 9.3105 13.007 9.17035 13.244C9.03021 13.4809 8.82905 13.6759 8.58786 13.8086C8.34668 13.9414 8.07429 14.0069 7.79912 13.9985C7.52396 13.9901 7.25609 13.908 7.02346 13.7608C6.79084 13.6136 6.60197 13.4067 6.47657 13.1616C6.35117 12.9165 6.29383 12.6423 6.31052 12.3675C6.32722 12.0927 6.41735 11.8274 6.5715 11.5993C6.72565 11.3712 6.93818 11.1887 7.18692 11.0707C7.29214 11.0208 7.38103 10.942 7.44326 10.8436C7.50549 10.7451 7.5385 10.631 7.53846 10.5146V7.23072C7.5385 7.14077 7.51882 7.0519 7.4808 6.97037C7.44278 6.88885 7.38735 6.81665 7.31842 6.75886C7.24948 6.70107 7.16871 6.6591 7.0818 6.63589C6.99489 6.61269 6.90395 6.60883 6.81538 6.62457C4.07 7.1138 2 9.62303 2 12.4615C2 14.012 2.61593 15.499 3.7123 16.5953C4.80867 17.6917 6.29566 18.3076 7.84615 18.3076C9.39665 18.3076 10.8836 17.6917 11.98 16.5953C13.0764 15.499 13.6923 14.012 13.6923 12.4615V9.40688C14.832 10.0015 16.0991 10.3106 17.3846 10.3076C17.5478 10.3076 17.7044 10.2428 17.8198 10.1274C17.9352 10.012 18 9.85547 18 9.69226V6.61534C18 6.45213 17.9352 6.2956 17.8198 6.1802C17.7044 6.06479 17.5478 5.99995 17.3846 5.99995ZM16.7692 9.04918C15.5667 8.94258 14.4151 8.51339 13.4362 7.80688C13.3441 7.74072 13.2356 7.70126 13.1226 7.69284C13.0096 7.68442 12.8965 7.70738 12.7957 7.75917C12.6949 7.81096 12.6103 7.88958 12.5514 7.98636C12.4924 8.08314 12.4613 8.19432 12.4615 8.30765V12.4615C12.4615 13.6856 11.9753 14.8595 11.1097 15.7251C10.2442 16.5906 9.07023 17.0769 7.84615 17.0769C6.62208 17.0769 5.44814 16.5906 4.58258 15.7251C3.71703 14.8595 3.23077 13.6856 3.23077 12.4615C3.23077 10.4692 4.51077 8.68226 6.30769 8.03072V10.1592C5.90988 10.425 5.58773 10.7893 5.37262 11.2167C5.1575 11.644 5.05678 12.1198 5.08026 12.5976C5.10374 13.0755 5.25062 13.5391 5.50659 13.9433C5.76256 14.3475 6.11889 14.6785 6.54084 14.904C6.96279 15.1295 7.43596 15.2419 7.91425 15.2301C8.39254 15.2184 8.85962 15.0829 9.26997 14.8369C9.68032 14.5909 10.0199 14.2428 10.2557 13.8265C10.4915 13.4102 10.6154 12.9399 10.6154 12.4615V2.92303H12.5C12.6384 4.00694 13.1327 5.01424 13.9054 5.7869C14.678 6.55956 15.6853 7.05387 16.7692 7.19226V9.04918Z" fill="black"/>
</svg>
